<mxfile host="Electron" agent="Mozilla/5.0 (X11; Linux x86_64) AppleWebKit/537.36 (KHTML, like Gecko) draw.io/24.7.8 Chrome/128.0.6613.36 Electron/32.0.1 Safari/537.36" version="24.7.8">
  <diagram name="Page-1" id="VOTwZXIP0C5Wm990iq9c">
    <mxGraphModel dx="1758" dy="1046" grid="1" gridSize="10" guides="1" tooltips="1" connect="1" arrows="1" fold="1" page="1" pageScale="1" pageWidth="850" pageHeight="1100" math="1" shadow="0">
      <root>
        <mxCell id="0" />
        <mxCell id="1" parent="0" />
        <mxCell id="DH1XRu-fGJWWLNNBZg_z-2" value="" style="verticalLabelPosition=bottom;shadow=0;dashed=0;align=center;html=1;verticalAlign=top;shape=mxgraph.electrical.transistors.pmos;pointerEvents=1;direction=east;flipH=0;strokeWidth=2;" vertex="1" parent="1">
          <mxGeometry x="200" y="180" width="60" height="100" as="geometry" />
        </mxCell>
        <mxCell id="DH1XRu-fGJWWLNNBZg_z-3" value="" style="verticalLabelPosition=bottom;shadow=0;dashed=0;align=center;html=1;verticalAlign=top;shape=mxgraph.electrical.transistors.pnp_transistor_5;flipH=1;strokeWidth=2;" vertex="1" parent="1">
          <mxGeometry x="80" y="520" width="64" height="100" as="geometry" />
        </mxCell>
        <mxCell id="DH1XRu-fGJWWLNNBZg_z-4" value="" style="verticalLabelPosition=bottom;shadow=0;dashed=0;align=center;html=1;verticalAlign=top;shape=mxgraph.electrical.transistors.pnp_transistor_5;flipH=0;strokeWidth=2;" vertex="1" parent="1">
          <mxGeometry x="256" y="520" width="64" height="100" as="geometry" />
        </mxCell>
        <mxCell id="DH1XRu-fGJWWLNNBZg_z-5" value="" style="pointerEvents=1;verticalLabelPosition=bottom;shadow=0;dashed=0;align=center;html=1;verticalAlign=top;shape=mxgraph.electrical.resistors.resistor_1;direction=south;strokeWidth=2;" vertex="1" parent="1">
          <mxGeometry x="75" y="339" width="10" height="70" as="geometry" />
        </mxCell>
        <mxCell id="DH1XRu-fGJWWLNNBZg_z-6" value="" style="pointerEvents=1;verticalLabelPosition=bottom;shadow=0;dashed=0;align=center;html=1;verticalAlign=top;shape=mxgraph.electrical.resistors.resistor_1;direction=south;strokeWidth=2;" vertex="1" parent="1">
          <mxGeometry x="315" y="339" width="10" height="70" as="geometry" />
        </mxCell>
        <mxCell id="DH1XRu-fGJWWLNNBZg_z-7" value="" style="pointerEvents=1;verticalLabelPosition=bottom;shadow=0;dashed=0;align=center;html=1;verticalAlign=top;shape=mxgraph.electrical.resistors.resistor_1;direction=south;strokeWidth=2;" vertex="1" parent="1">
          <mxGeometry x="315" y="442" width="10" height="70" as="geometry" />
        </mxCell>
        <mxCell id="DH1XRu-fGJWWLNNBZg_z-8" value="" style="verticalLabelPosition=bottom;shadow=0;dashed=0;align=center;html=1;verticalAlign=top;shape=stencil(pVXbcoMgFPwaHpsRyEUfU9u+9huIIZUJgoMkaf++R9E2qGGMzjjOnD26uy4cRDStclZyRCJWlTyziL4hQq7MCHaQABPo5A5MIlcqVnCHfJbcMCu0YhLwfVHCHbuHKmv0md/E0bZvC5VzI6zr3lrGuC7pO4r2ANYXTTOtFPgA0srr3PWBmwllPStCvThqsCQKbrlxeOv526t+2mqFtxuHIPLxnBoirzP0YjpPT1/sBDXcU5unBTCsncRTPm+1xaQfKV6iSmaqxsm4Kk0BebSlaHpg2fnL6Is6jnotWb17B42uXegr/7e18S2FUugIpFB3BG4a/hjWweUbp/A9JJNMZFJXPLBggA9yaNAH4dH0pA0PpHoSUrrjIaD6VPT+mOHFwU1jCHnYLfYwjcH3EC/OAa8XBxEvDqJnYk4S2D8Ld2SGix5FHD7Xxsak6z3c7c1rg3FpUPdbboBf);direction=north;flipH=0;strokeWidth=2;" vertex="1" parent="1">
          <mxGeometry x="160" y="308" width="81" height="80" as="geometry" />
        </mxCell>
        <mxCell id="DH1XRu-fGJWWLNNBZg_z-9" value="" style="endArrow=none;html=1;rounded=0;strokeWidth=4;" edge="1" parent="1">
          <mxGeometry width="50" height="50" relative="1" as="geometry">
            <mxPoint x="60" y="180" as="sourcePoint" />
            <mxPoint x="340" y="180" as="targetPoint" />
          </mxGeometry>
        </mxCell>
        <mxCell id="DH1XRu-fGJWWLNNBZg_z-10" value="" style="endArrow=none;html=1;rounded=0;exitX=1;exitY=0;exitDx=0;exitDy=0;exitPerimeter=0;entryX=1;entryY=0.5;entryDx=0;entryDy=0;entryPerimeter=0;strokeWidth=2;" edge="1" parent="1" source="DH1XRu-fGJWWLNNBZg_z-3" target="DH1XRu-fGJWWLNNBZg_z-5">
          <mxGeometry width="50" height="50" relative="1" as="geometry">
            <mxPoint x="30" y="430" as="sourcePoint" />
            <mxPoint x="80" y="380" as="targetPoint" />
          </mxGeometry>
        </mxCell>
        <mxCell id="DH1XRu-fGJWWLNNBZg_z-12" value="" style="endArrow=none;html=1;rounded=0;exitX=1.002;exitY=0.495;exitDx=0;exitDy=0;exitPerimeter=0;strokeWidth=2;" edge="1" parent="1" source="DH1XRu-fGJWWLNNBZg_z-8">
          <mxGeometry width="50" height="50" relative="1" as="geometry">
            <mxPoint x="150" y="280" as="sourcePoint" />
            <mxPoint x="200" y="230" as="targetPoint" />
          </mxGeometry>
        </mxCell>
        <mxCell id="DH1XRu-fGJWWLNNBZg_z-13" value="" style="endArrow=none;html=1;rounded=0;strokeWidth=2;" edge="1" parent="1" source="DH1XRu-fGJWWLNNBZg_z-35">
          <mxGeometry width="50" height="50" relative="1" as="geometry">
            <mxPoint x="80" y="280" as="sourcePoint" />
            <mxPoint x="362" y="280" as="targetPoint" />
          </mxGeometry>
        </mxCell>
        <mxCell id="DH1XRu-fGJWWLNNBZg_z-14" value="" style="endArrow=none;html=1;rounded=0;strokeWidth=2;" edge="1" parent="1" source="DH1XRu-fGJWWLNNBZg_z-17">
          <mxGeometry width="50" height="50" relative="1" as="geometry">
            <mxPoint x="260" y="290" as="sourcePoint" />
            <mxPoint x="260" y="270" as="targetPoint" />
          </mxGeometry>
        </mxCell>
        <mxCell id="DH1XRu-fGJWWLNNBZg_z-15" value="" style="endArrow=none;html=1;rounded=0;exitX=0.014;exitY=0.5;exitDx=0;exitDy=0;exitPerimeter=0;strokeWidth=2;entryX=0.495;entryY=1.024;entryDx=0;entryDy=0;entryPerimeter=0;" edge="1" parent="1" source="DH1XRu-fGJWWLNNBZg_z-6" target="DH1XRu-fGJWWLNNBZg_z-35">
          <mxGeometry width="50" height="50" relative="1" as="geometry">
            <mxPoint x="320" y="310" as="sourcePoint" />
            <mxPoint x="320" y="290" as="targetPoint" />
          </mxGeometry>
        </mxCell>
        <mxCell id="DH1XRu-fGJWWLNNBZg_z-16" value="" style="endArrow=none;html=1;rounded=0;exitX=0;exitY=0.5;exitDx=0;exitDy=0;exitPerimeter=0;strokeWidth=2;" edge="1" parent="1" source="DH1XRu-fGJWWLNNBZg_z-5">
          <mxGeometry width="50" height="50" relative="1" as="geometry">
            <mxPoint x="79.92000000000002" y="310" as="sourcePoint" />
            <mxPoint x="80" y="280" as="targetPoint" />
          </mxGeometry>
        </mxCell>
        <mxCell id="DH1XRu-fGJWWLNNBZg_z-18" value="" style="endArrow=none;html=1;rounded=0;strokeWidth=2;" edge="1" parent="1">
          <mxGeometry width="50" height="50" relative="1" as="geometry">
            <mxPoint x="80" y="440" as="sourcePoint" />
            <mxPoint x="173" y="440" as="targetPoint" />
          </mxGeometry>
        </mxCell>
        <mxCell id="DH1XRu-fGJWWLNNBZg_z-19" value="" style="endArrow=none;html=1;rounded=0;strokeWidth=2;" edge="1" parent="1">
          <mxGeometry width="50" height="50" relative="1" as="geometry">
            <mxPoint x="173" y="440" as="sourcePoint" />
            <mxPoint x="173" y="388" as="targetPoint" />
          </mxGeometry>
        </mxCell>
        <mxCell id="DH1XRu-fGJWWLNNBZg_z-20" value="" style="shape=waypoint;sketch=0;fillStyle=solid;size=6;pointerEvents=1;points=[];fillColor=none;resizable=0;rotatable=0;perimeter=centerPerimeter;snapToPoint=1;strokeWidth=1;" vertex="1" parent="1">
          <mxGeometry x="70" y="430" width="20" height="20" as="geometry" />
        </mxCell>
        <mxCell id="DH1XRu-fGJWWLNNBZg_z-21" value="" style="endArrow=none;html=1;rounded=0;strokeWidth=2;" edge="1" parent="1">
          <mxGeometry width="50" height="50" relative="1" as="geometry">
            <mxPoint x="227.98" y="440" as="sourcePoint" />
            <mxPoint x="227.98" y="388" as="targetPoint" />
          </mxGeometry>
        </mxCell>
        <mxCell id="DH1XRu-fGJWWLNNBZg_z-22" value="" style="endArrow=none;html=1;rounded=0;strokeWidth=2;" edge="1" parent="1">
          <mxGeometry width="50" height="50" relative="1" as="geometry">
            <mxPoint x="228" y="439.93" as="sourcePoint" />
            <mxPoint x="320" y="440" as="targetPoint" />
          </mxGeometry>
        </mxCell>
        <mxCell id="DH1XRu-fGJWWLNNBZg_z-23" value="" style="endArrow=none;html=1;rounded=0;exitX=0.002;exitY=0.501;exitDx=0;exitDy=0;exitPerimeter=0;entryX=1;entryY=0.5;entryDx=0;entryDy=0;entryPerimeter=0;strokeWidth=2;" edge="1" parent="1" source="DH1XRu-fGJWWLNNBZg_z-7" target="DH1XRu-fGJWWLNNBZg_z-6">
          <mxGeometry width="50" height="50" relative="1" as="geometry">
            <mxPoint x="320" y="440" as="sourcePoint" />
            <mxPoint x="320" y="380" as="targetPoint" />
          </mxGeometry>
        </mxCell>
        <mxCell id="DH1XRu-fGJWWLNNBZg_z-24" value="" style="shape=waypoint;sketch=0;fillStyle=solid;size=6;pointerEvents=1;points=[];fillColor=none;resizable=0;rotatable=0;perimeter=centerPerimeter;snapToPoint=1;strokeWidth=1;" vertex="1" parent="1">
          <mxGeometry x="310" y="430" width="20" height="20" as="geometry" />
        </mxCell>
        <mxCell id="DH1XRu-fGJWWLNNBZg_z-25" value="" style="endArrow=none;html=1;rounded=0;strokeWidth=2;" edge="1" parent="1">
          <mxGeometry width="50" height="50" relative="1" as="geometry">
            <mxPoint x="259.96" y="190" as="sourcePoint" />
            <mxPoint x="259.96" y="180" as="targetPoint" />
          </mxGeometry>
        </mxCell>
        <mxCell id="DH1XRu-fGJWWLNNBZg_z-26" value="" style="endArrow=none;html=1;rounded=0;strokeWidth=4;" edge="1" parent="1">
          <mxGeometry width="50" height="50" relative="1" as="geometry">
            <mxPoint x="60" y="620" as="sourcePoint" />
            <mxPoint x="340" y="620" as="targetPoint" />
          </mxGeometry>
        </mxCell>
        <mxCell id="DH1XRu-fGJWWLNNBZg_z-27" value="" style="endArrow=none;html=1;rounded=0;entryX=0;entryY=0.5;entryDx=0;entryDy=0;entryPerimeter=0;strokeWidth=2;" edge="1" parent="1" target="DH1XRu-fGJWWLNNBZg_z-4">
          <mxGeometry width="50" height="50" relative="1" as="geometry">
            <mxPoint x="140" y="570" as="sourcePoint" />
            <mxPoint x="190" y="520" as="targetPoint" />
          </mxGeometry>
        </mxCell>
        <mxCell id="DH1XRu-fGJWWLNNBZg_z-28" value="" style="endArrow=none;html=1;rounded=0;strokeWidth=2;" edge="1" parent="1">
          <mxGeometry width="50" height="50" relative="1" as="geometry">
            <mxPoint x="200" y="620" as="sourcePoint" />
            <mxPoint x="200" y="570" as="targetPoint" />
          </mxGeometry>
        </mxCell>
        <mxCell id="DH1XRu-fGJWWLNNBZg_z-29" value="" style="shape=waypoint;sketch=0;fillStyle=solid;size=6;pointerEvents=1;points=[];fillColor=none;resizable=0;rotatable=0;perimeter=centerPerimeter;snapToPoint=1;strokeWidth=1;" vertex="1" parent="1">
          <mxGeometry x="190" y="560" width="20" height="20" as="geometry" />
        </mxCell>
        <mxCell id="DH1XRu-fGJWWLNNBZg_z-30" value="&lt;font style=&quot;font-size: 18px;&quot;&gt;$$R_2$$&lt;/font&gt;" style="text;html=1;align=center;verticalAlign=middle;whiteSpace=wrap;rounded=0;" vertex="1" parent="1">
          <mxGeometry x="320" y="358" width="60" height="30" as="geometry" />
        </mxCell>
        <mxCell id="DH1XRu-fGJWWLNNBZg_z-31" value="&lt;font style=&quot;font-size: 18px;&quot;&gt;$$R_1$$&lt;/font&gt;" style="text;html=1;align=center;verticalAlign=middle;whiteSpace=wrap;rounded=0;" vertex="1" parent="1">
          <mxGeometry x="320" y="462" width="60" height="30" as="geometry" />
        </mxCell>
        <mxCell id="DH1XRu-fGJWWLNNBZg_z-32" value="" style="endArrow=none;html=1;rounded=0;entryX=1;entryY=0.5;entryDx=0;entryDy=0;entryPerimeter=0;strokeWidth=2;" edge="1" parent="1">
          <mxGeometry width="50" height="50" relative="1" as="geometry">
            <mxPoint x="320" y="522" as="sourcePoint" />
            <mxPoint x="320" y="512" as="targetPoint" />
          </mxGeometry>
        </mxCell>
        <mxCell id="DH1XRu-fGJWWLNNBZg_z-33" value="&lt;font style=&quot;font-size: 18px;&quot;&gt;$$n$$&lt;/font&gt;" style="text;html=1;align=center;verticalAlign=middle;whiteSpace=wrap;rounded=0;" vertex="1" parent="1">
          <mxGeometry x="290" y="560" width="60" height="30" as="geometry" />
        </mxCell>
        <mxCell id="DH1XRu-fGJWWLNNBZg_z-34" value="&lt;font style=&quot;font-size: 18px;&quot;&gt;$$1$$&lt;/font&gt;" style="text;html=1;align=center;verticalAlign=middle;whiteSpace=wrap;rounded=0;" vertex="1" parent="1">
          <mxGeometry x="50" y="560" width="60" height="30" as="geometry" />
        </mxCell>
        <mxCell id="DH1XRu-fGJWWLNNBZg_z-36" value="&lt;font style=&quot;font-size: 18px;&quot;&gt;$$V_{bg}$$&lt;/font&gt;" style="text;html=1;align=center;verticalAlign=middle;whiteSpace=wrap;rounded=0;" vertex="1" parent="1">
          <mxGeometry x="330" y="250" width="60" height="30" as="geometry" />
        </mxCell>
        <mxCell id="DH1XRu-fGJWWLNNBZg_z-37" value="" style="verticalLabelPosition=bottom;shadow=0;dashed=0;align=center;html=1;verticalAlign=top;shape=mxgraph.electrical.transistors.pmos;pointerEvents=1;direction=east;flipH=0;strokeWidth=2;" vertex="1" parent="1">
          <mxGeometry x="710" y="180" width="60" height="100" as="geometry" />
        </mxCell>
        <mxCell id="DH1XRu-fGJWWLNNBZg_z-38" value="" style="verticalLabelPosition=bottom;shadow=0;dashed=0;align=center;html=1;verticalAlign=top;shape=mxgraph.electrical.transistors.pnp_transistor_5;flipH=1;strokeWidth=2;" vertex="1" parent="1">
          <mxGeometry x="530" y="520" width="64" height="100" as="geometry" />
        </mxCell>
        <mxCell id="DH1XRu-fGJWWLNNBZg_z-39" value="" style="verticalLabelPosition=bottom;shadow=0;dashed=0;align=center;html=1;verticalAlign=top;shape=mxgraph.electrical.transistors.pnp_transistor_5;flipH=0;strokeWidth=2;" vertex="1" parent="1">
          <mxGeometry x="706" y="520" width="64" height="100" as="geometry" />
        </mxCell>
        <mxCell id="DH1XRu-fGJWWLNNBZg_z-42" value="" style="pointerEvents=1;verticalLabelPosition=bottom;shadow=0;dashed=0;align=center;html=1;verticalAlign=top;shape=mxgraph.electrical.resistors.resistor_1;direction=south;strokeWidth=2;" vertex="1" parent="1">
          <mxGeometry x="765" y="442" width="10" height="70" as="geometry" />
        </mxCell>
        <mxCell id="DH1XRu-fGJWWLNNBZg_z-43" value="" style="verticalLabelPosition=bottom;shadow=0;dashed=0;align=center;html=1;verticalAlign=top;shape=stencil(pVXbcoMgFPwaHpsRyEUfU9u+9huIIZUJgoMkaf++R9E2qGGMzjjOnD26uy4cRDStclZyRCJWlTyziL4hQq7MCHaQABPo5A5MIlcqVnCHfJbcMCu0YhLwfVHCHbuHKmv0md/E0bZvC5VzI6zr3lrGuC7pO4r2ANYXTTOtFPgA0srr3PWBmwllPStCvThqsCQKbrlxeOv526t+2mqFtxuHIPLxnBoirzP0YjpPT1/sBDXcU5unBTCsncRTPm+1xaQfKV6iSmaqxsm4Kk0BebSlaHpg2fnL6Is6jnotWb17B42uXegr/7e18S2FUugIpFB3BG4a/hjWweUbp/A9JJNMZFJXPLBggA9yaNAH4dH0pA0PpHoSUrrjIaD6VPT+mOHFwU1jCHnYLfYwjcH3EC/OAa8XBxEvDqJnYk4S2D8Ld2SGix5FHD7Xxsak6z3c7c1rg3FpUPdbboBf);direction=north;flipH=0;strokeWidth=2;" vertex="1" parent="1">
          <mxGeometry x="610" y="308" width="81" height="80" as="geometry" />
        </mxCell>
        <mxCell id="DH1XRu-fGJWWLNNBZg_z-44" value="" style="endArrow=none;html=1;rounded=0;strokeWidth=4;" edge="1" parent="1">
          <mxGeometry width="50" height="50" relative="1" as="geometry">
            <mxPoint x="510" y="180" as="sourcePoint" />
            <mxPoint x="1020" y="180" as="targetPoint" />
          </mxGeometry>
        </mxCell>
        <mxCell id="DH1XRu-fGJWWLNNBZg_z-45" value="" style="endArrow=none;html=1;rounded=0;exitX=1;exitY=0;exitDx=0;exitDy=0;exitPerimeter=0;entryX=1;entryY=0.5;entryDx=0;entryDy=0;entryPerimeter=0;strokeWidth=2;" edge="1" parent="1" source="DH1XRu-fGJWWLNNBZg_z-38">
          <mxGeometry width="50" height="50" relative="1" as="geometry">
            <mxPoint x="480" y="430" as="sourcePoint" />
            <mxPoint x="530" y="408.9999999999999" as="targetPoint" />
          </mxGeometry>
        </mxCell>
        <mxCell id="DH1XRu-fGJWWLNNBZg_z-46" value="" style="endArrow=none;html=1;rounded=0;exitX=1.002;exitY=0.495;exitDx=0;exitDy=0;exitPerimeter=0;strokeWidth=2;" edge="1" parent="1" source="DH1XRu-fGJWWLNNBZg_z-43">
          <mxGeometry width="50" height="50" relative="1" as="geometry">
            <mxPoint x="600" y="280" as="sourcePoint" />
            <mxPoint x="650" y="230" as="targetPoint" />
          </mxGeometry>
        </mxCell>
        <mxCell id="DH1XRu-fGJWWLNNBZg_z-48" value="" style="endArrow=none;html=1;rounded=0;strokeWidth=2;exitDx=0;exitDy=0;exitPerimeter=0;" edge="1" parent="1" source="DH1XRu-fGJWWLNNBZg_z-69">
          <mxGeometry width="50" height="50" relative="1" as="geometry">
            <mxPoint x="590" y="250" as="sourcePoint" />
            <mxPoint x="590" y="230" as="targetPoint" />
          </mxGeometry>
        </mxCell>
        <mxCell id="DH1XRu-fGJWWLNNBZg_z-49" value="" style="endArrow=none;html=1;rounded=0;strokeWidth=2;entryX=1;entryY=1;entryDx=0;entryDy=0;entryPerimeter=0;" edge="1" parent="1" target="DH1XRu-fGJWWLNNBZg_z-37">
          <mxGeometry width="50" height="50" relative="1" as="geometry">
            <mxPoint x="770" y="410" as="sourcePoint" />
            <mxPoint x="770" y="290" as="targetPoint" />
          </mxGeometry>
        </mxCell>
        <mxCell id="DH1XRu-fGJWWLNNBZg_z-50" value="" style="endArrow=none;html=1;rounded=0;strokeWidth=2;entryX=1;entryY=1;entryDx=0;entryDy=0;entryPerimeter=0;" edge="1" parent="1" target="DH1XRu-fGJWWLNNBZg_z-74">
          <mxGeometry width="50" height="50" relative="1" as="geometry">
            <mxPoint x="530" y="410" as="sourcePoint" />
            <mxPoint x="529.9200000000001" y="290" as="targetPoint" />
          </mxGeometry>
        </mxCell>
        <mxCell id="DH1XRu-fGJWWLNNBZg_z-52" value="" style="endArrow=none;html=1;rounded=0;strokeWidth=2;" edge="1" parent="1">
          <mxGeometry width="50" height="50" relative="1" as="geometry">
            <mxPoint x="530" y="440" as="sourcePoint" />
            <mxPoint x="623" y="440" as="targetPoint" />
          </mxGeometry>
        </mxCell>
        <mxCell id="DH1XRu-fGJWWLNNBZg_z-53" value="" style="endArrow=none;html=1;rounded=0;strokeWidth=2;" edge="1" parent="1">
          <mxGeometry width="50" height="50" relative="1" as="geometry">
            <mxPoint x="623" y="440" as="sourcePoint" />
            <mxPoint x="623" y="388" as="targetPoint" />
          </mxGeometry>
        </mxCell>
        <mxCell id="DH1XRu-fGJWWLNNBZg_z-54" value="" style="shape=waypoint;sketch=0;fillStyle=solid;size=6;pointerEvents=1;points=[];fillColor=none;resizable=0;rotatable=0;perimeter=centerPerimeter;snapToPoint=1;strokeWidth=1;" vertex="1" parent="1">
          <mxGeometry x="520" y="430" width="20" height="20" as="geometry" />
        </mxCell>
        <mxCell id="DH1XRu-fGJWWLNNBZg_z-55" value="" style="endArrow=none;html=1;rounded=0;strokeWidth=2;" edge="1" parent="1">
          <mxGeometry width="50" height="50" relative="1" as="geometry">
            <mxPoint x="677.98" y="440" as="sourcePoint" />
            <mxPoint x="677.98" y="388" as="targetPoint" />
          </mxGeometry>
        </mxCell>
        <mxCell id="DH1XRu-fGJWWLNNBZg_z-56" value="" style="endArrow=none;html=1;rounded=0;strokeWidth=2;" edge="1" parent="1">
          <mxGeometry width="50" height="50" relative="1" as="geometry">
            <mxPoint x="678" y="439.93" as="sourcePoint" />
            <mxPoint x="860" y="440" as="targetPoint" />
          </mxGeometry>
        </mxCell>
        <mxCell id="DH1XRu-fGJWWLNNBZg_z-57" value="" style="endArrow=none;html=1;rounded=0;exitX=0.002;exitY=0.501;exitDx=0;exitDy=0;exitPerimeter=0;entryX=1;entryY=0.5;entryDx=0;entryDy=0;entryPerimeter=0;strokeWidth=2;" edge="1" parent="1" source="DH1XRu-fGJWWLNNBZg_z-42">
          <mxGeometry width="50" height="50" relative="1" as="geometry">
            <mxPoint x="770" y="440" as="sourcePoint" />
            <mxPoint x="770" y="408.9999999999999" as="targetPoint" />
          </mxGeometry>
        </mxCell>
        <mxCell id="DH1XRu-fGJWWLNNBZg_z-58" value="" style="shape=waypoint;sketch=0;fillStyle=solid;size=6;pointerEvents=1;points=[];fillColor=none;resizable=0;rotatable=0;perimeter=centerPerimeter;snapToPoint=1;strokeWidth=1;" vertex="1" parent="1">
          <mxGeometry x="760" y="430" width="20" height="20" as="geometry" />
        </mxCell>
        <mxCell id="DH1XRu-fGJWWLNNBZg_z-59" value="" style="endArrow=none;html=1;rounded=0;strokeWidth=2;" edge="1" parent="1">
          <mxGeometry width="50" height="50" relative="1" as="geometry">
            <mxPoint x="530" y="190" as="sourcePoint" />
            <mxPoint x="530" y="180" as="targetPoint" />
          </mxGeometry>
        </mxCell>
        <mxCell id="DH1XRu-fGJWWLNNBZg_z-60" value="" style="endArrow=none;html=1;rounded=0;strokeWidth=4;" edge="1" parent="1">
          <mxGeometry width="50" height="50" relative="1" as="geometry">
            <mxPoint x="510" y="620" as="sourcePoint" />
            <mxPoint x="1020" y="620" as="targetPoint" />
          </mxGeometry>
        </mxCell>
        <mxCell id="DH1XRu-fGJWWLNNBZg_z-61" value="" style="endArrow=none;html=1;rounded=0;entryX=0;entryY=0.5;entryDx=0;entryDy=0;entryPerimeter=0;strokeWidth=2;" edge="1" parent="1" target="DH1XRu-fGJWWLNNBZg_z-39">
          <mxGeometry width="50" height="50" relative="1" as="geometry">
            <mxPoint x="590" y="570" as="sourcePoint" />
            <mxPoint x="640" y="520" as="targetPoint" />
          </mxGeometry>
        </mxCell>
        <mxCell id="DH1XRu-fGJWWLNNBZg_z-62" value="" style="endArrow=none;html=1;rounded=0;strokeWidth=2;" edge="1" parent="1">
          <mxGeometry width="50" height="50" relative="1" as="geometry">
            <mxPoint x="650" y="620" as="sourcePoint" />
            <mxPoint x="650" y="570" as="targetPoint" />
          </mxGeometry>
        </mxCell>
        <mxCell id="DH1XRu-fGJWWLNNBZg_z-63" value="" style="shape=waypoint;sketch=0;fillStyle=solid;size=6;pointerEvents=1;points=[];fillColor=none;resizable=0;rotatable=0;perimeter=centerPerimeter;snapToPoint=1;strokeWidth=1;" vertex="1" parent="1">
          <mxGeometry x="640" y="560" width="20" height="20" as="geometry" />
        </mxCell>
        <mxCell id="DH1XRu-fGJWWLNNBZg_z-64" value="&lt;font style=&quot;font-size: 18px;&quot;&gt;$$R_2$$&lt;/font&gt;" style="text;html=1;align=center;verticalAlign=middle;whiteSpace=wrap;rounded=0;" vertex="1" parent="1">
          <mxGeometry x="860" y="462" width="60" height="30" as="geometry" />
        </mxCell>
        <mxCell id="DH1XRu-fGJWWLNNBZg_z-65" value="&lt;font style=&quot;font-size: 18px;&quot;&gt;$$R_1$$&lt;/font&gt;" style="text;html=1;align=center;verticalAlign=middle;whiteSpace=wrap;rounded=0;" vertex="1" parent="1">
          <mxGeometry x="770" y="462" width="60" height="30" as="geometry" />
        </mxCell>
        <mxCell id="DH1XRu-fGJWWLNNBZg_z-66" value="" style="endArrow=none;html=1;rounded=0;entryX=1;entryY=0.5;entryDx=0;entryDy=0;entryPerimeter=0;strokeWidth=2;" edge="1" parent="1">
          <mxGeometry width="50" height="50" relative="1" as="geometry">
            <mxPoint x="770" y="522" as="sourcePoint" />
            <mxPoint x="770" y="512" as="targetPoint" />
          </mxGeometry>
        </mxCell>
        <mxCell id="DH1XRu-fGJWWLNNBZg_z-67" value="&lt;font style=&quot;font-size: 18px;&quot;&gt;$$n$$&lt;/font&gt;" style="text;html=1;align=center;verticalAlign=middle;whiteSpace=wrap;rounded=0;" vertex="1" parent="1">
          <mxGeometry x="740" y="560" width="60" height="30" as="geometry" />
        </mxCell>
        <mxCell id="DH1XRu-fGJWWLNNBZg_z-68" value="&lt;font style=&quot;font-size: 18px;&quot;&gt;$$1$$&lt;/font&gt;" style="text;html=1;align=center;verticalAlign=middle;whiteSpace=wrap;rounded=0;" vertex="1" parent="1">
          <mxGeometry x="500" y="560" width="60" height="30" as="geometry" />
        </mxCell>
        <mxCell id="DH1XRu-fGJWWLNNBZg_z-70" value="&lt;font style=&quot;font-size: 18px;&quot;&gt;$$V_{bg}$$&lt;/font&gt;" style="text;html=1;align=center;verticalAlign=middle;whiteSpace=wrap;rounded=0;" vertex="1" parent="1">
          <mxGeometry x="1000" y="370" width="60" height="30" as="geometry" />
        </mxCell>
        <mxCell id="DH1XRu-fGJWWLNNBZg_z-71" value="&lt;font style=&quot;font-size: 18px;&quot;&gt;$$R_2$$&lt;/font&gt;" style="text;html=1;align=center;verticalAlign=middle;whiteSpace=wrap;rounded=0;" vertex="1" parent="1">
          <mxGeometry x="82" y="358" width="60" height="30" as="geometry" />
        </mxCell>
        <mxCell id="DH1XRu-fGJWWLNNBZg_z-72" value="&lt;font style=&quot;font-size: 20px;&quot;&gt;&lt;b&gt;&lt;i&gt;(a)&lt;/i&gt;&lt;/b&gt;&lt;/font&gt;" style="text;html=1;align=center;verticalAlign=middle;whiteSpace=wrap;rounded=0;" vertex="1" parent="1">
          <mxGeometry x="160" y="650" width="60" height="30" as="geometry" />
        </mxCell>
        <mxCell id="DH1XRu-fGJWWLNNBZg_z-74" value="" style="verticalLabelPosition=bottom;shadow=0;dashed=0;align=center;html=1;verticalAlign=top;shape=mxgraph.electrical.transistors.pmos;pointerEvents=1;direction=east;flipH=1;strokeWidth=2;" vertex="1" parent="1">
          <mxGeometry x="530" y="180" width="60" height="100" as="geometry" />
        </mxCell>
        <mxCell id="DH1XRu-fGJWWLNNBZg_z-75" value="" style="endArrow=none;html=1;rounded=0;strokeWidth=2;exitX=0;exitY=0.5;exitDx=0;exitDy=0;exitPerimeter=0;" edge="1" parent="1" source="DH1XRu-fGJWWLNNBZg_z-84" target="DH1XRu-fGJWWLNNBZg_z-69">
          <mxGeometry width="50" height="50" relative="1" as="geometry">
            <mxPoint x="710" y="230" as="sourcePoint" />
            <mxPoint x="590" y="230" as="targetPoint" />
          </mxGeometry>
        </mxCell>
        <mxCell id="DH1XRu-fGJWWLNNBZg_z-69" value="" style="shape=waypoint;sketch=0;fillStyle=solid;size=6;pointerEvents=1;points=[];fillColor=none;resizable=0;rotatable=0;perimeter=centerPerimeter;snapToPoint=1;" vertex="1" parent="1">
          <mxGeometry x="640" y="220" width="20" height="20" as="geometry" />
        </mxCell>
        <mxCell id="DH1XRu-fGJWWLNNBZg_z-76" value="" style="endArrow=none;html=1;rounded=0;strokeWidth=2;" edge="1" parent="1">
          <mxGeometry width="50" height="50" relative="1" as="geometry">
            <mxPoint x="770" y="190" as="sourcePoint" />
            <mxPoint x="770" y="180" as="targetPoint" />
          </mxGeometry>
        </mxCell>
        <mxCell id="DH1XRu-fGJWWLNNBZg_z-77" value="" style="pointerEvents=1;verticalLabelPosition=bottom;shadow=0;dashed=0;align=center;html=1;verticalAlign=top;shape=mxgraph.electrical.resistors.resistor_1;direction=south;strokeWidth=2;" vertex="1" parent="1">
          <mxGeometry x="850" y="442" width="10" height="70" as="geometry" />
        </mxCell>
        <mxCell id="DH1XRu-fGJWWLNNBZg_z-78" value="" style="endArrow=none;html=1;rounded=0;strokeWidth=2;exitX=0.97;exitY=0.39;exitDx=0;exitDy=0;exitPerimeter=0;" edge="1" parent="1">
          <mxGeometry width="50" height="50" relative="1" as="geometry">
            <mxPoint x="855.0500000000001" y="512" as="sourcePoint" />
            <mxPoint x="854.95" y="622.1" as="targetPoint" />
          </mxGeometry>
        </mxCell>
        <mxCell id="DH1XRu-fGJWWLNNBZg_z-79" value="" style="endArrow=none;html=1;rounded=0;strokeWidth=2;" edge="1" parent="1">
          <mxGeometry width="50" height="50" relative="1" as="geometry">
            <mxPoint x="854.95" y="450" as="sourcePoint" />
            <mxPoint x="854.95" y="440" as="targetPoint" />
          </mxGeometry>
        </mxCell>
        <mxCell id="DH1XRu-fGJWWLNNBZg_z-80" value="&lt;font style=&quot;font-size: 18px;&quot;&gt;$$V_{be1}$$&lt;/font&gt;" style="text;html=1;align=center;verticalAlign=middle;whiteSpace=wrap;rounded=0;" vertex="1" parent="1">
          <mxGeometry x="82" y="510" width="60" height="30" as="geometry" />
        </mxCell>
        <mxCell id="DH1XRu-fGJWWLNNBZg_z-81" value="&lt;font style=&quot;font-size: 18px;&quot;&gt;$$V_{be2}$$&lt;/font&gt;" style="text;html=1;align=center;verticalAlign=middle;whiteSpace=wrap;rounded=0;" vertex="1" parent="1">
          <mxGeometry x="255" y="512" width="60" height="30" as="geometry" />
        </mxCell>
        <mxCell id="DH1XRu-fGJWWLNNBZg_z-82" value="&lt;font style=&quot;font-size: 18px;&quot;&gt;$$V_{be1}$$&lt;/font&gt;" style="text;html=1;align=center;verticalAlign=middle;whiteSpace=wrap;rounded=0;" vertex="1" parent="1">
          <mxGeometry x="532" y="512" width="60" height="30" as="geometry" />
        </mxCell>
        <mxCell id="DH1XRu-fGJWWLNNBZg_z-83" value="&lt;font style=&quot;font-size: 18px;&quot;&gt;$$V_{be2}$$&lt;/font&gt;" style="text;html=1;align=center;verticalAlign=middle;whiteSpace=wrap;rounded=0;" vertex="1" parent="1">
          <mxGeometry x="705" y="514" width="60" height="30" as="geometry" />
        </mxCell>
        <mxCell id="DH1XRu-fGJWWLNNBZg_z-84" value="" style="verticalLabelPosition=bottom;shadow=0;dashed=0;align=center;html=1;verticalAlign=top;shape=mxgraph.electrical.transistors.pmos;pointerEvents=1;direction=east;flipH=0;strokeWidth=2;" vertex="1" parent="1">
          <mxGeometry x="930" y="180" width="60" height="100" as="geometry" />
        </mxCell>
        <mxCell id="DH1XRu-fGJWWLNNBZg_z-85" value="" style="endArrow=none;html=1;rounded=0;strokeWidth=2;" edge="1" parent="1">
          <mxGeometry width="50" height="50" relative="1" as="geometry">
            <mxPoint x="990" y="190" as="sourcePoint" />
            <mxPoint x="990" y="180" as="targetPoint" />
          </mxGeometry>
        </mxCell>
        <mxCell id="DH1XRu-fGJWWLNNBZg_z-86" value="" style="endArrow=none;html=1;rounded=0;strokeWidth=2;entryX=1;entryY=1;entryDx=0;entryDy=0;entryPerimeter=0;" edge="1" parent="1" source="DH1XRu-fGJWWLNNBZg_z-92">
          <mxGeometry width="50" height="50" relative="1" as="geometry">
            <mxPoint x="990" y="440" as="sourcePoint" />
            <mxPoint x="990" y="276" as="targetPoint" />
          </mxGeometry>
        </mxCell>
        <mxCell id="DH1XRu-fGJWWLNNBZg_z-87" value="" style="pointerEvents=1;verticalLabelPosition=bottom;shadow=0;dashed=0;align=center;html=1;verticalAlign=top;shape=mxgraph.electrical.resistors.resistor_1;direction=south;strokeWidth=2;" vertex="1" parent="1">
          <mxGeometry x="985" y="440" width="10" height="70" as="geometry" />
        </mxCell>
        <mxCell id="DH1XRu-fGJWWLNNBZg_z-88" value="" style="endArrow=none;html=1;rounded=0;strokeWidth=2;exitX=0.97;exitY=0.39;exitDx=0;exitDy=0;exitPerimeter=0;" edge="1" parent="1">
          <mxGeometry width="50" height="50" relative="1" as="geometry">
            <mxPoint x="990.1" y="510" as="sourcePoint" />
            <mxPoint x="990" y="620.1" as="targetPoint" />
          </mxGeometry>
        </mxCell>
        <mxCell id="DH1XRu-fGJWWLNNBZg_z-89" value="&lt;font style=&quot;font-size: 18px;&quot;&gt;$$R_3$$&lt;/font&gt;" style="text;html=1;align=center;verticalAlign=middle;whiteSpace=wrap;rounded=0;" vertex="1" parent="1">
          <mxGeometry x="990" y="462" width="60" height="30" as="geometry" />
        </mxCell>
        <mxCell id="DH1XRu-fGJWWLNNBZg_z-90" value="&lt;font style=&quot;font-size: 20px;&quot;&gt;&lt;b&gt;&lt;i&gt;(b)&lt;/i&gt;&lt;/b&gt;&lt;/font&gt;" style="text;html=1;align=center;verticalAlign=middle;whiteSpace=wrap;rounded=0;" vertex="1" parent="1">
          <mxGeometry x="730" y="650" width="60" height="30" as="geometry" />
        </mxCell>
        <mxCell id="DH1XRu-fGJWWLNNBZg_z-91" value="" style="endArrow=none;html=1;rounded=0;strokeWidth=2;" edge="1" parent="1">
          <mxGeometry width="50" height="50" relative="1" as="geometry">
            <mxPoint x="990" y="400" as="sourcePoint" />
            <mxPoint x="1040" y="400" as="targetPoint" />
          </mxGeometry>
        </mxCell>
        <mxCell id="DH1XRu-fGJWWLNNBZg_z-93" value="" style="endArrow=none;html=1;rounded=0;strokeWidth=2;entryDx=0;entryDy=0;entryPerimeter=0;" edge="1" parent="1" target="DH1XRu-fGJWWLNNBZg_z-92">
          <mxGeometry width="50" height="50" relative="1" as="geometry">
            <mxPoint x="990" y="440" as="sourcePoint" />
            <mxPoint x="990" y="276" as="targetPoint" />
          </mxGeometry>
        </mxCell>
        <mxCell id="DH1XRu-fGJWWLNNBZg_z-92" value="" style="shape=waypoint;sketch=0;fillStyle=solid;size=6;pointerEvents=1;points=[];fillColor=none;resizable=0;rotatable=0;perimeter=centerPerimeter;snapToPoint=1;strokeWidth=1;" vertex="1" parent="1">
          <mxGeometry x="980" y="389" width="20" height="20" as="geometry" />
        </mxCell>
        <mxCell id="DH1XRu-fGJWWLNNBZg_z-95" value="" style="endArrow=none;html=1;rounded=0;strokeWidth=2;" edge="1" parent="1" target="DH1XRu-fGJWWLNNBZg_z-35">
          <mxGeometry width="50" height="50" relative="1" as="geometry">
            <mxPoint x="80" y="280" as="sourcePoint" />
            <mxPoint x="362" y="280" as="targetPoint" />
          </mxGeometry>
        </mxCell>
        <mxCell id="DH1XRu-fGJWWLNNBZg_z-35" value="" style="shape=waypoint;sketch=0;fillStyle=solid;size=6;pointerEvents=1;points=[];fillColor=none;resizable=0;rotatable=0;perimeter=centerPerimeter;snapToPoint=1;" vertex="1" parent="1">
          <mxGeometry x="310" y="270" width="20" height="20" as="geometry" />
        </mxCell>
        <mxCell id="DH1XRu-fGJWWLNNBZg_z-96" value="" style="endArrow=none;html=1;rounded=0;strokeWidth=2;exitX=0.485;exitY=0.99;exitDx=0;exitDy=0;exitPerimeter=0;" edge="1" parent="1" source="DH1XRu-fGJWWLNNBZg_z-17" target="DH1XRu-fGJWWLNNBZg_z-17">
          <mxGeometry width="50" height="50" relative="1" as="geometry">
            <mxPoint x="260" y="290" as="sourcePoint" />
            <mxPoint x="260" y="270" as="targetPoint" />
            <Array as="points">
              <mxPoint x="260" y="280" />
            </Array>
          </mxGeometry>
        </mxCell>
        <mxCell id="DH1XRu-fGJWWLNNBZg_z-17" value="" style="shape=waypoint;sketch=0;fillStyle=solid;size=6;pointerEvents=1;points=[];fillColor=none;resizable=0;rotatable=0;perimeter=centerPerimeter;snapToPoint=1;strokeWidth=1;" vertex="1" parent="1">
          <mxGeometry x="250" y="270" width="20" height="20" as="geometry" />
        </mxCell>
      </root>
    </mxGraphModel>
  </diagram>
</mxfile>
